<?xml version="1.0" encoding="utf-8"?>
<!-- Generator: Adobe Illustrator 19.0.0, SVG Export Plug-In . SVG Version: 6.00 Build 0)  -->
<svg version="1.1" id="Capa_1" xmlns="http://www.w3.org/2000/svg" xmlns:xlink="http://www.w3.org/1999/xlink" x="0px" y="0px"
	 viewBox="0 76.2 595.3 688.7" style="enable-background:new 0 76.2 595.3 688.7;" xml:space="preserve">
<style type="text/css">
	.st0{opacity:0.21;}
	.st1{fill:url(#XMLID_4_);}
	.st2{fill:#61A6E2;fill-opacity:0;}
	.st3{opacity:0.28;fill:#61A6E2;enable-background:new    ;}
	.st4{fill:#FFFFFF;}
	.st5{fill:#436DC0;}
	.st6{opacity:0.27;fill:#61A6E2;enable-background:new    ;}
	.st7{fill:#61A6E2;}
	.st8{fill:none;}
	.st9{fill:#FFE48D;}
	.st10{fill:#37599A;}
	.st11{fill:url(#XMLID_5_);}
	.st12{fill:#FDBC44;}
	.st13{fill:url(#XMLID_6_);}
	.st14{fill:#90A5A6;}
	.st15{fill:#213950;}
	.st16{fill:#BBC2C8;}
	.st17{opacity:0.5;fill:#436DC0;enable-background:new    ;}
	.st18{opacity:0.8;fill:#436DC0;enable-background:new    ;}
	.st19{opacity:0.5;fill:#FFFFFF;enable-background:new    ;}
	.st20{opacity:0.8;fill:#FFFFFF;enable-background:new    ;}
	.st21{fill:#09AB4B;}
	.st22{fill:#E14E2A;}
	.st23{fill:#B2B8BF;}
</style>
<g id="XMLID_1_">
	<g id="XMLID_241_" class="st0">
		
			<linearGradient id="XMLID_4_" gradientUnits="userSpaceOnUse" x1="0.5863" y1="419.73" x2="595.3" y2="419.73" gradientTransform="matrix(1 0 0 -1 0 840.27)">
			<stop  offset="2.982488e-002" style="stop-color:#436DC0"/>
			<stop  offset="0.1776" style="stop-color:#4074C2"/>
			<stop  offset="0.4291" style="stop-color:#3A86C8"/>
			<stop  offset="0.7517" style="stop-color:#32A3CE"/>
			<stop  offset="1" style="stop-color:#2EBAD0"/>
		</linearGradient>
		<path id="XMLID_22_" class="st1" d="M51.7,764.9c-36-39.3-58.3-110.6-49-163.9c9.2-53.4,50.8-101,102.4-109.2
			c24.9-4,54.6-1,70.6-21.2c12.1-15.2,10.5-37.9,3.8-56.4s-17.7-35.2-23.2-54.1c-12.3-42.3,7.4-91.1,43-115.4s83.8-24.7,121.9-5
			c12.7,6.6,25.1,15.4,39.3,16.4c27.2,2,49.9-32.4,38.3-58c-5.6-12.4-17-21.3-22.4-33.9c-7.7-18-1-39.9,11.4-54.7
			c12.4-14.9,29.7-24.3,46.6-33.3h160.9v688.7H51.7"/>
	</g>
	<path id="XMLID_240_" class="st2" d="M336.6,322.3h172.8c3.9,0,7.1,3,7.1,6.6v245.6c0,3.7-3.2,6.6-7.1,6.6H336.6
		c-3.9,0-7.1-3-7.1-6.6V328.9C329.5,325.3,332.7,322.3,336.6,322.3z"/>
	<path id="XMLID_239_" class="st3" d="M142.1,581.1h-77c-1.6,0-2.8-1.3-2.8-2.8v-256h79.9v258.8H142.1z"/>
	<path id="XMLID_238_" class="st4" d="M128.3,394.3H76c-2.7,0-4.8-2.2-4.8-4.8v-54.8c0-2.7,2.2-4.8,4.8-4.8h52.3
		c2.7,0,4.8,2.2,4.8,4.8v54.8C133.2,392.2,131,394.3,128.3,394.3z"/>
	<path id="XMLID_237_" class="st4" d="M128.3,414.6H76c-2.7,0-4.8-2.2-4.8-4.8v-3.6c0-2.7,2.2-4.8,4.8-4.8h52.3
		c2.7,0,4.8,2.2,4.8,4.8v3.6C133.2,412.4,131,414.6,128.3,414.6z"/>
	<path id="XMLID_236_" class="st4" d="M128.3,432.6H76c-2.7,0-4.8-2.2-4.8-4.8v-3.6c0-2.7,2.2-4.8,4.8-4.8h52.3
		c2.7,0,4.8,2.2,4.8,4.8v3.6C133.2,430.4,131,432.6,128.3,432.6z"/>
	<path id="XMLID_235_" class="st4" d="M510.8,581.1H142.6V322.3h373.9v253.2C516.4,578.6,513.9,581.1,510.8,581.1z"/>
	<path id="XMLID_234_" class="st5" d="M516.4,322.3H62.2v-16.2c0-3.1,2.5-5.7,5.7-5.7h442.9c3.1,0,5.7,2.5,5.7,5.7L516.4,322.3
		L516.4,322.3z"/>
	<path id="XMLID_233_" class="st6" d="M312.8,496.3H171.5c-2.7,0-4.8-2.2-4.8-4.8v-3.6c0-2.7,2.2-4.8,4.8-4.8h141.3
		c2.7,0,4.8,2.2,4.8,4.8v3.6C317.6,494.1,315.5,496.3,312.8,496.3z"/>
	<path id="XMLID_232_" class="st6" d="M312.8,521.3H171.5c-2.7,0-4.8-2.2-4.8-4.8v-3.6c0-2.7,2.2-4.8,4.8-4.8h141.3
		c2.7,0,4.8,2.2,4.8,4.8v3.6C317.6,519.2,315.5,521.3,312.8,521.3z"/>
	<path id="XMLID_231_" class="st6" d="M312.8,546.4H171.5c-2.7,0-4.8-2.2-4.8-4.8V538c0-2.7,2.2-4.8,4.8-4.8h141.3
		c2.7,0,4.8,2.2,4.8,4.8v3.6C317.6,544.2,315.5,546.4,312.8,546.4z"/>
	<path id="XMLID_230_" class="st6" d="M487.5,571.4H346.2c-2.7,0-4.8-2.2-4.8-4.8v-118c0-2.7,2.2-4.8,4.8-4.8h141.3
		c2.7,0,4.8,2.2,4.8,4.8v118C492.4,569.2,490.2,571.4,487.5,571.4z"/>
	<path id="XMLID_229_" class="st6" d="M487.5,432.6H346.2c-2.7,0-4.8-2.2-4.8-4.8v-3.6c0-2.7,2.2-4.8,4.8-4.8h141.3
		c2.7,0,4.8,2.2,4.8,4.8v3.6C492.4,430.4,490.2,432.6,487.5,432.6z"/>
	<path id="XMLID_228_" class="st6" d="M312.8,571.4H171.5c-2.7,0-4.8-2.2-4.8-4.8V563c0-2.7,2.2-4.8,4.8-4.8h141.3
		c2.7,0,4.8,2.2,4.8,4.8v3.6C317.6,569.2,315.5,571.4,312.8,571.4z"/>
	<path id="XMLID_227_" class="st6" d="M312.8,465.7H171.5c-2.7,0-4.8-2.2-4.8-4.8V335.6c0-2.7,2.2-4.8,4.8-4.8h141.3
		c2.7,0,4.8,2.2,4.8,4.8v125.2C317.6,463.5,315.5,465.7,312.8,465.7z"/>
	<path id="XMLID_226_" class="st6" d="M487.5,408H346.2c-2.7,0-4.8-2.2-4.8-4.8v-67.5c0-2.7,2.2-4.8,4.8-4.8h141.3
		c2.7,0,4.8,2.2,4.8,4.8v67.5C492.4,405.8,490.2,408,487.5,408z"/>
	<ellipse id="XMLID_225_" class="st7" cx="117.3" cy="311.4" rx="6.7" ry="6.3"/>
	<ellipse id="XMLID_224_" class="st7" cx="97.8" cy="311.4" rx="6.7" ry="6.3"/>
	<ellipse id="XMLID_223_" class="st7" cx="78.3" cy="311.4" rx="6.7" ry="6.3"/>
	<path id="XMLID_221_" class="st4" d="M128.3,571.4H76c-2.7,0-4.8-2.2-4.8-4.8V563c0-2.7,2.2-4.8,4.8-4.8h52.3
		c2.7,0,4.8,2.2,4.8,4.8v3.6C133.2,569.2,131,571.4,128.3,571.4z"/>
	<path id="XMLID_220_" class="st8" d="M511.6,581.1H67.1c-2.7,0-4.8-2.2-4.8-4.8V306.1c0-3.1,2.5-5.7,5.7-5.7h442.9
		c3.1,0,5.7,2.5,5.7,5.7v270.2C516.4,579,514.3,581.1,511.6,581.1z"/>
	<path id="XMLID_218_" class="st9" d="M447.6,720.7c0.9-5.7-2.3-10.9-4.6-16.3c-3.6-8.4-4.8-20.5-3.6-29.5l19.2-7.5
		c4.7,7.8,7.4,18.4,8.8,27.4s1.6,18.1,1.8,27.2c0.1,3.9,0.7,9.2-2.2,11.8c-2.4,3-6.1,4.5-9.6,5.9c-8.5,3.3-20.3,7-29.5,7
		c-22.6,4.9-42.5-3-65.3,1l0.3-1.9c1.9-3.8,4.3-7.4,7.6-10.1c3.3-2.7,7.6-4.2,11.8-3.6c3.3,0.5,6.2,2.2,9.5,2.8
		c4.6,0.9,9.3-0.3,13.5-2.3s8.1-4.6,12.2-6.7c7.4-3.8,15.9-5.8,24-4.2C443.6,722,446.3,722.4,447.6,720.7"/>
	<g id="XMLID_215_">
		<line id="XMLID_23_" class="st8" x1="373.9" y1="605.6" x2="401.9" y2="604.2"/>
	</g>
	<g id="XMLID_212_">
		<path id="XMLID_24_" class="st7" d="M335.1,619.7"/>
	</g>
	<g id="XMLID_209_">
		<path id="XMLID_28_" class="st7" d="M315.2,756.5"/>
	</g>
	<g id="XMLID_206_">
		<path id="XMLID_29_" class="st7" d="M449.9,674.9"/>
	</g>
	<g id="XMLID_203_">
		<path id="XMLID_30_" class="st10" d="M329.1,655.7c1.1-13,2.7-21,12.8-37.9c-6.2,3.7-12.7,10-16.6,16.1s-6.8,12.8-9.5,19.5
			c-0.1,0.3-0.2,0.6-0.1,0.9c0.2,0.4,0.7,0.5,1.2,0.5C320.6,654.8,325.6,655.7,329.1,655.7"/>
	</g>
	<g id="XMLID_200_">
		
			<linearGradient id="XMLID_5_" gradientUnits="userSpaceOnUse" x1="328.9" y1="155.68" x2="435.999" y2="155.68" gradientTransform="matrix(1 0 0 -1 0 840.27)">
			<stop  offset="2.982488e-002" style="stop-color:#436DC0"/>
			<stop  offset="0.1776" style="stop-color:#4074C2"/>
			<stop  offset="0.4291" style="stop-color:#3A86C8"/>
			<stop  offset="0.7517" style="stop-color:#32A3CE"/>
			<stop  offset="1" style="stop-color:#2EBAD0"/>
		</linearGradient>
		<path id="XMLID_54_" class="st11" d="M435.2,763.3l-106.3-0.9l3.8-106.5c0.3-10.8,3.7-21.3,8.2-31.1c1.2-2.6,2.4-5.1,4.3-7.3
			c3-3.5,7.3-5.7,11.5-7.6c4.6-2,12.2-5,17.2-4.3l27.1-0.7h-0.7c9,1.3,19.7,3.2,27.1,8.6l-0.2,0.2c-2.9,5.1-4.7,10.6-6.2,16.3
			c-2,7.7-3.3,15.7-3.1,23.6s2.1,16,6.2,22.9c0.6,1,1.3,2,2.3,2.7c0.9,0.6,2,0.8,3.1,1c3.8,0.6-0.6-0.1,3.2,0.5h0.4
			c3.2,29,3.7,54.5,2.2,83.6"/>
	</g>
	<path id="XMLID_199_" class="st9" d="M447.6,720.7c0.9-5.7-2.3-10.9-4.6-16.3c-3.6-8.4-4.8-20.5-3.6-29.5l19.2-7.5
		c4.7,7.8,7.4,18.4,8.8,27.4s1.6,18.1,1.8,27.2c0.1,3.9,0.7,9.2-2.2,11.8c-2.4,3-6.1,4.5-9.6,5.9c-8.5,3.3-20.3,7-29.5,7
		c-22.6,4.9-42.5-3-65.3,1l0.3-1.9c1.9-3.8,4.3-7.4,7.6-10.1c3.3-2.7,7.6-4.2,11.8-3.6c3.3,0.5,6.2,2.2,9.5,2.8
		c4.6,0.9,9.3-0.3,13.5-2.3s8.1-4.6,12.2-6.7c7.4-3.8,15.9-5.8,24-4.2C443.6,722,446.3,722.4,447.6,720.7"/>
	<g id="XMLID_196_">
		<path id="XMLID_55_" class="st12" d="M458.5,667.4l-19.2,7.5c-0.2,1.6-0.3,3.2-0.4,4.9c7.9,0,15.9-2.4,22.3-7
			C460.5,670.9,459.5,669.1,458.5,667.4z"/>
	</g>
	<path id="XMLID_195_" class="st9" d="M398.6,587.9l-23.1,5.6c0.1,4.5-1.4,10.8-4.2,14.3h0.1c-0.5,0.2-0.7,0.9-0.8,1.4
		c-0.6,3.1-0.3,6.3,0.6,9.3c0.6,1.9,1.3,3.7,2.4,5.3c2.3,3.4,6,5.8,10.1,6.5s8.4-0.3,11.7-2.7c1.2-0.9,2.3-2,3.3-3.1
		c0.8-0.9,1.7-1.9,2.2-3c0.6-1.2,1.2-2.5,1.6-3.7c0.7-2.2,1.4-4.3,2-6.5c0.5-2.2,0.6-4.7-0.6-6.7
		C403.9,604.4,394.6,596.5,398.6,587.9z"/>
	<path id="XMLID_194_" class="st12" d="M374.8,600c0.2,0.1,0.5,0.1,0.7,0.2c7.8,1.4,16.1-0.5,22.5-5.1c-0.5-2.2-0.5-4.6,0.7-7.1
		l-23.1,5.6C375.6,595.5,375.3,597.8,374.8,600z"/>
	<path id="XMLID_193_" class="st9" d="M426.3,546.3l-0.1,0.1c1.1-2.8,2.2-7.6,2.2-10.6c0.1-8.2,0.2-16.7-2.6-24.5
		c-2.3-6.3-6.3-11.8-10.8-16.8c-1.8-2-3.7-4-6.1-5.2c-2-1-4.2-1.5-6.4-1.8c-16.1-2.2-33.2,4.4-43.6,16.9c-2.8,3.4-5.2,7.3-5.9,11.6
		c-2.6,9.7-3.3,19.9-3.5,29.9c-0.2,10.2,0.3,20.6,4.2,30c3.9,9.4,11.8,17.6,21.8,19.5c7.8,1.5,16.1-0.5,22.6-5.2s11.8-16.1,15.9-23
		l0.3,0.1c4.5-0.7,10.6-3,12.9-7.4c1.3-2.6,1.6-4.1,1.7-7.1C429,550.5,428.1,547.9,426.3,546.3z"/>
	<g id="XMLID_190_">
		
			<linearGradient id="XMLID_6_" gradientUnits="userSpaceOnUse" x1="421.7149" y1="194.0569" x2="463.9713" y2="194.0569" gradientTransform="matrix(1 0 0 -1 0 840.27)">
			<stop  offset="2.982488e-002" style="stop-color:#436DC0"/>
			<stop  offset="0.1776" style="stop-color:#4074C2"/>
			<stop  offset="0.4291" style="stop-color:#3A86C8"/>
			<stop  offset="0.7517" style="stop-color:#32A3CE"/>
			<stop  offset="1" style="stop-color:#2EBAD0"/>
		</linearGradient>
		<path id="XMLID_56_" class="st13" d="M426.7,675.5c11.4,3.1,24.2,0.3,33.4-7.1c1.6-1.3,3.1-2.7,3.7-4.7c0.5-1.6,0.3-3.4,0-5
			c-3.1-17.6-14.3-33.7-29.9-42.5c-0.5-0.3-1-0.5-1.6-0.5s-1.2,0.5-1.6,1c-3.5,3.6-4.9,8.8-5.9,13.7c-1.6,7.5-3,15-3,22.6
			s1.2,15.4,4.6,22.2"/>
	</g>
	<path id="XMLID_189_" class="st14" d="M434.9,751.6h-89.3c-0.6,0-1.1-0.5-1.1-1.1v-3.2c0-0.6,0.5-1.1,1.1-1.1h89.3
		c0.6,0,1.1,0.5,1.1,1.1v3.2C436,751.2,435.5,751.6,434.9,751.6z"/>
	<path id="XMLID_175_" class="st15" d="M595.3,764.9H31.7c-2.7,0-4.9-2.2-4.9-4.9v-3.5c0-2.7,2.2-4.9,4.9-4.9h563.6V764.9z"/>
	<path id="XMLID_174_" class="st16" d="M346.2,751.6l-107.8,0.1c-3.5,0-6.5-2.5-7.1-5.9l-15.5-82.9c-0.8-4.5,2.6-8.6,7.1-8.6h104.4
		c3.4,0,6.3,2.3,7.1,5.7l18.8,82.9C354.3,747.3,350.8,751.6,346.2,751.6z"/>
	
		<ellipse id="XMLID_173_" transform="matrix(-0.1111 -0.9938 0.9938 -0.1111 -386.3421 1065.4015)" class="st4" cx="283.3" cy="705.5" rx="11" ry="9.5"/>
	<g id="XMLID_78_">
		<g id="XMLID_79_" class="st0">
			<polygon id="XMLID_87_" class="st5" points="146.6,694 122.4,694 131.8,751.6 146.6,751.6 161.4,751.6 170.8,694 			"/>
			<path id="XMLID_86_" class="st17" d="M172.5,694h-51.7c-0.3,0-0.6-0.3-0.6-0.6v-5.3c0-0.3,0.3-0.6,0.6-0.6h51.7
				c0.3,0,0.6,0.3,0.6,0.6v5.3C173.1,693.7,172.8,694,172.5,694z"/>
			<path id="XMLID_83_" class="st18" d="M168.6,687.5h-44v-5.6c0-0.5,0.4-0.9,0.9-0.9h42.2c0.5,0,0.9,0.4,0.9,0.9V687.5z"/>
		</g>
		<polygon id="XMLID_171_" class="st4" points="152.7,694 128.3,694 137.8,751.6 152.7,751.6 167.5,751.6 177,694 		"/>
		<path id="XMLID_168_" class="st19" d="M178.7,694h-52c-0.3,0-0.6-0.3-0.6-0.6v-5.3c0-0.3,0.3-0.6,0.6-0.6h52
			c0.3,0,0.6,0.3,0.6,0.6v5.3C179.3,693.7,179,694,178.7,694z"/>
		<path id="XMLID_167_" class="st20" d="M174.8,687.5h-44.2v-5.6c0-0.5,0.4-0.9,0.9-0.9H174c0.5,0,0.9,0.4,0.9,0.9L174.8,687.5
			L174.8,687.5z"/>
		<circle id="XMLID_149_" class="st21" cx="150.7" cy="719.5" r="11.4"/>
	</g>
	<g id="XMLID_85_">
		<g id="XMLID_88_" transform="translate(0.000000,640.000000) scale(0.100000,-0.100000)">
			<path id="XMLID_90_" class="st15" d="M3536.8,1005.2c-36.3-1.2-65.5-3.4-94.3-7.3c-7.2-1-7.7-1.1-7.7-2.1c0-0.6,0.3-7.6,0.7-15.7
				s0.7-15.7,0.7-17v-2.3l3.8-1.9c4.4-2.1,8.9-6,11.4-10c2.5-3.8,4.1-9.2,6.1-20.9c9.9-56.5,21.8-88.6,39-105.6
				c3.3-3.3,12.1-9.9,17.7-13.2c17.3-10.3,39-14.8,65.3-13.3c46.2,2.6,81.9,15.7,100.4,36.7c21.1,24.1,37.8,57.1,44.4,87.8
				c2,9.3,4.9,14.6,10.2,18.2c7.4,5,19.6,5,27,0c5.3-3.6,8.2-8.8,10.2-18.2c6.1-28.2,19.4-56,39.1-81.5
				c12.1-15.7,26.6-25.4,48.7-32.9c21.9-7.4,53.2-11.6,75.3-10.2c23.6,1.6,39.5,7.1,56.6,19.9c10.6,7.9,16.5,15.2,23.2,28.6
				c9.6,19.1,16.5,43.6,23.7,83.6c2.3,12.8,3.6,17.2,6.2,21.2c2.3,3.6,7.1,7.7,11.4,9.8l3.8,1.9v2.5c0,1.4,0.3,9.1,0.7,17
				s0.7,14.9,0.7,15.5c0,1-0.5,1.1-7.7,2.1c-39,5.3-82.9,7.9-133.2,7.9c-21.3,0-28.7-0.4-43.3-2.2c-26.9-3.4-53.5-9.2-67.7-14.6
				c-2.3-0.9-7.5-3.2-11.4-5.1c-8-3.9-13.7-5.9-20.7-7.2c-4.4-0.8-7.6-0.9-29.1-0.9s-24.8,0.1-29.1,0.9c-7,1.3-12.7,3.3-20.7,7.2
				c-3.9,1.9-9,4.2-11.4,5.1c-17.2,6.7-50.9,13.3-81.7,16.1C3596.2,1005.7,3558.9,1005.9,3536.8,1005.2z M3625.6,987.1
				c18.3-1.3,33.8-4.9,45.1-10.5c6.5-3.2,9.5-5.4,14.6-10.5c6.9-6.9,9.6-12.7,12.1-25.5c0.7-3.7,0.9-7.2,0.9-16.9
				c0-10.7-0.1-13.1-1.1-18.5c-3.8-20.9-12.4-40.4-25.1-56.4c-4.5-5.6-13.5-14.4-17.9-17.4c-13.6-9.2-40.5-17.3-64.5-19.5
				c-7-0.6-23.5-0.6-29.5,0c-15.4,1.7-29.2,6.3-39.5,13.2c-5,3.4-11.6,10-16.9,17.1c-16,21.3-22.9,42.4-25.9,78
				c-1.9,22.8,2,35.9,13.9,47c12.7,11.9,31.4,18.3,58.6,19.8C3560.3,987.6,3617.6,987.6,3625.6,987.1z M3952.5,986.7
				c13.4-1.4,22.7-3.5,31.4-6.9c18.1-7.2,29.1-18.3,33.1-33.7c3.6-14,0.3-48.3-6.8-69.8c-6.8-20.6-21.4-42-35-51.2
				c-10.3-6.9-24.3-11.5-40.2-13.2c-8.3-0.8-28.3-0.3-37,1c-23.6,3.6-44,10.3-56.2,18.5c-4.4,3-13.5,11.8-17.9,17.4
				c-17.2,21.8-26.4,48.2-26.4,75c0,13.9,2.1,25.1,6.2,33c4.1,7.8,12.6,15.5,22.5,20.2c10.9,5.1,28,9,45.2,10.2
				C3877.6,987.7,3947.6,987.2,3952.5,986.7z"/>
		</g>
	</g>
	<g id="XMLID_80_">
		<path id="XMLID_49_" class="st22" d="M430,543.7c6-13,3.9-28.6-2.6-41.3c-1.8-3.6-4-7-6.8-10c-9.3-10.1-24.4-13.9-37.9-11.2
			s-25.3,11.3-33.7,22.2c-6.3,8.3-10.9,19.5-6.7,29c0.8,1.8,2,3.6,3.8,4.4s3.1,0.3,3.9-1.4c0,0,0.9-10.9,2.6-16.2
			c0.3-1.1,0.9-2.3,2-2.5c1.6-0.2,2.5,1.8,2.8,3.4c0.4,1.9,0.7,3.8,1.1,5.7c0.3,1.8,0.7,3.7,2.1,5s3.9,1.3,4.7-0.4
			c0.3-0.7,0.3-1.5,0.2-2.3c-0.2-2.4-0.4-4.8-0.7-7.3c-0.1-0.8-0.1-1.6,0.1-2.4s0.9-1.4,1.7-1.5c1.1-0.1,1.9,1,2.5,1.9
			c3.4,5.5,7.3,10.9,12.9,14.2c1.2,0.7,2.5,1.3,3.9,1.4c1.4,0.1,2.9-0.4,3.7-1.5c1.5-2.1,0.1-4.9-1-7.2c-1.4-2.9-2.3-5.9-2.8-9
			c-0.3-1.9,0-4.5,1.9-5.1c1-0.3,2.2,0.1,2.9,0.8c0.7,0.7,1.2,1.7,1.6,2.7c1.6,3.9,2.4,8,4.1,11.8s4.4,7.5,8.3,8.9
			c1.2,0.4,2.5,0.7,3.6,1.4c1.5,1,2.3,2.7,2.5,4.5c0.2,1.7-0.1,3.5-0.4,5.2c-0.2,1-0.3,2-0.5,2.9c-0.1,0.7-0.2,1.5,0,2.1
			c0.5,1.5,2.6,1.8,4,1.1c1.4-0.7,2.2-2.2,2.9-3.6c0.7-1.4,1.3-2.9,2.5-4c2.1-1.9,5.8-1.4,7.4,0.9c0.2,0.2,0.3,0.5,0.6,0.7
			c0.8,0.5,1.7-0.4,2.1-1.2c1-2,1.7-4.1,2-6.3"/>
	</g>
	<path id="XMLID_81_" class="st23" d="M353.2,746.2c-62.7-6.7-100.8-23.4-134.4-90.7c-2.3,1.6-3.6,4.4-3,7.3l15.5,82.9
		c0.6,3.4,3.6,5.9,7.1,5.9h0.3l107.5-0.1C349.6,751.6,352.4,749.2,353.2,746.2L353.2,746.2z"/>
</g>
</svg>
